<mxfile host="app.diagrams.net" agent="Mozilla/5.0 (Windows NT 10.0; Win64; x64) AppleWebKit/537.36 (KHTML, like Gecko) Chrome/133.0.0.0 Safari/537.36 OPR/118.0.0.0" version="26.2.14">
  <diagram name="Page-1" id="xZg8HLXwmTfEzDWNphzY">
    <mxGraphModel dx="1385" dy="764" grid="1" gridSize="10" guides="1" tooltips="1" connect="1" arrows="1" fold="1" page="1" pageScale="1" pageWidth="850" pageHeight="1100" math="0" shadow="0">
      <root>
        <mxCell id="0" />
        <mxCell id="1" parent="0" />
        <mxCell id="5d-99hIwQhO7OZEcg7qO-1" value="Ef 1" style="ellipse;whiteSpace=wrap;html=1;" parent="1" vertex="1">
          <mxGeometry x="710" y="40" width="40" height="40" as="geometry" />
        </mxCell>
        <mxCell id="5d-99hIwQhO7OZEcg7qO-2" value="Ef 2" style="ellipse;whiteSpace=wrap;html=1;" parent="1" vertex="1">
          <mxGeometry x="710" y="90" width="40" height="40" as="geometry" />
        </mxCell>
        <mxCell id="5d-99hIwQhO7OZEcg7qO-3" value="Ef 3" style="ellipse;whiteSpace=wrap;html=1;" parent="1" vertex="1">
          <mxGeometry x="710" y="140" width="40" height="40" as="geometry" />
        </mxCell>
        <mxCell id="5d-99hIwQhO7OZEcg7qO-4" value="Ef 4" style="ellipse;whiteSpace=wrap;html=1;" parent="1" vertex="1">
          <mxGeometry x="710" y="190" width="40" height="40" as="geometry" />
        </mxCell>
        <mxCell id="5d-99hIwQhO7OZEcg7qO-5" value="Ef 5" style="ellipse;whiteSpace=wrap;html=1;" parent="1" vertex="1">
          <mxGeometry x="710" y="260" width="40" height="40" as="geometry" />
        </mxCell>
        <mxCell id="5d-99hIwQhO7OZEcg7qO-9" value="Ef 8" style="ellipse;whiteSpace=wrap;html=1;" parent="1" vertex="1">
          <mxGeometry x="710" y="820" width="40" height="40" as="geometry" />
        </mxCell>
        <mxCell id="5d-99hIwQhO7OZEcg7qO-10" value="Ef 9" style="ellipse;whiteSpace=wrap;html=1;" parent="1" vertex="1">
          <mxGeometry x="710" y="880" width="40" height="40" as="geometry" />
        </mxCell>
        <mxCell id="5d-99hIwQhO7OZEcg7qO-11" value="C1" style="ellipse;whiteSpace=wrap;html=1;" parent="1" vertex="1">
          <mxGeometry x="180" y="10" width="40" height="40" as="geometry" />
        </mxCell>
        <mxCell id="5d-99hIwQhO7OZEcg7qO-12" value="C2" style="ellipse;whiteSpace=wrap;html=1;" parent="1" vertex="1">
          <mxGeometry x="180" y="60" width="40" height="40" as="geometry" />
        </mxCell>
        <mxCell id="5d-99hIwQhO7OZEcg7qO-13" value="C3" style="ellipse;whiteSpace=wrap;html=1;" parent="1" vertex="1">
          <mxGeometry x="180" y="110" width="40" height="40" as="geometry" />
        </mxCell>
        <mxCell id="5d-99hIwQhO7OZEcg7qO-14" value="C4" style="ellipse;whiteSpace=wrap;html=1;" parent="1" vertex="1">
          <mxGeometry x="180" y="160" width="40" height="40" as="geometry" />
        </mxCell>
        <mxCell id="5d-99hIwQhO7OZEcg7qO-15" value="C5" style="ellipse;whiteSpace=wrap;html=1;" parent="1" vertex="1">
          <mxGeometry x="180" y="210" width="40" height="40" as="geometry" />
        </mxCell>
        <mxCell id="5d-99hIwQhO7OZEcg7qO-16" value="C6" style="ellipse;whiteSpace=wrap;html=1;" parent="1" vertex="1">
          <mxGeometry x="180" y="260" width="40" height="40" as="geometry" />
        </mxCell>
        <mxCell id="5d-99hIwQhO7OZEcg7qO-17" value="C7" style="ellipse;whiteSpace=wrap;html=1;" parent="1" vertex="1">
          <mxGeometry x="180" y="310" width="40" height="40" as="geometry" />
        </mxCell>
        <mxCell id="5d-99hIwQhO7OZEcg7qO-18" value="C8" style="ellipse;whiteSpace=wrap;html=1;" parent="1" vertex="1">
          <mxGeometry x="180" y="360" width="40" height="40" as="geometry" />
        </mxCell>
        <mxCell id="5d-99hIwQhO7OZEcg7qO-19" value="C9" style="ellipse;whiteSpace=wrap;html=1;" parent="1" vertex="1">
          <mxGeometry x="180" y="410" width="40" height="40" as="geometry" />
        </mxCell>
        <mxCell id="5d-99hIwQhO7OZEcg7qO-20" value="C10" style="ellipse;whiteSpace=wrap;html=1;" parent="1" vertex="1">
          <mxGeometry x="180" y="460" width="40" height="40" as="geometry" />
        </mxCell>
        <mxCell id="5d-99hIwQhO7OZEcg7qO-21" value="C11" style="ellipse;whiteSpace=wrap;html=1;" parent="1" vertex="1">
          <mxGeometry x="180" y="510" width="40" height="40" as="geometry" />
        </mxCell>
        <mxCell id="5d-99hIwQhO7OZEcg7qO-22" value="C12" style="ellipse;whiteSpace=wrap;html=1;" parent="1" vertex="1">
          <mxGeometry x="180" y="560" width="40" height="40" as="geometry" />
        </mxCell>
        <mxCell id="5d-99hIwQhO7OZEcg7qO-23" value="C13" style="ellipse;whiteSpace=wrap;html=1;" parent="1" vertex="1">
          <mxGeometry x="180" y="610" width="40" height="40" as="geometry" />
        </mxCell>
        <mxCell id="5d-99hIwQhO7OZEcg7qO-25" value="" style="endArrow=none;html=1;rounded=0;exitX=1;exitY=0.5;exitDx=0;exitDy=0;entryX=0;entryY=0.5;entryDx=0;entryDy=0;" parent="1" source="5d-99hIwQhO7OZEcg7qO-11" target="5d-99hIwQhO7OZEcg7qO-1" edge="1">
          <mxGeometry width="50" height="50" relative="1" as="geometry">
            <mxPoint x="310" y="85" as="sourcePoint" />
            <mxPoint x="360" y="35" as="targetPoint" />
          </mxGeometry>
        </mxCell>
        <mxCell id="5d-99hIwQhO7OZEcg7qO-27" value="" style="endArrow=none;html=1;rounded=0;entryX=0;entryY=0.5;entryDx=0;entryDy=0;exitX=1;exitY=0.5;exitDx=0;exitDy=0;" parent="1" source="5d-99hIwQhO7OZEcg7qO-13" target="5d-99hIwQhO7OZEcg7qO-1" edge="1">
          <mxGeometry width="50" height="50" relative="1" as="geometry">
            <mxPoint x="400" y="390" as="sourcePoint" />
            <mxPoint x="450" y="340" as="targetPoint" />
          </mxGeometry>
        </mxCell>
        <mxCell id="5d-99hIwQhO7OZEcg7qO-29" value="" style="shape=requiredInterface;html=1;verticalLabelPosition=bottom;sketch=0;rotation=-180;" parent="1" vertex="1">
          <mxGeometry x="400" y="40" width="10" height="30" as="geometry" />
        </mxCell>
        <mxCell id="5d-99hIwQhO7OZEcg7qO-32" value="" style="endArrow=none;html=1;rounded=0;entryX=0;entryY=0.5;entryDx=0;entryDy=0;exitX=1;exitY=0.5;exitDx=0;exitDy=0;" parent="1" source="5d-99hIwQhO7OZEcg7qO-12" target="5d-99hIwQhO7OZEcg7qO-1" edge="1">
          <mxGeometry width="50" height="50" relative="1" as="geometry">
            <mxPoint x="400" y="350" as="sourcePoint" />
            <mxPoint x="450" y="300" as="targetPoint" />
          </mxGeometry>
        </mxCell>
        <mxCell id="5d-99hIwQhO7OZEcg7qO-33" value="" style="shape=requiredInterface;html=1;verticalLabelPosition=bottom;sketch=0;rotation=-180;" parent="1" vertex="1">
          <mxGeometry x="415" y="70" width="10" height="30" as="geometry" />
        </mxCell>
        <mxCell id="5d-99hIwQhO7OZEcg7qO-34" value="V" style="text;html=1;align=center;verticalAlign=middle;resizable=0;points=[];autosize=1;strokeColor=none;fillColor=none;rotation=-1;" parent="1" vertex="1">
          <mxGeometry x="345" y="78" width="30" height="30" as="geometry" />
        </mxCell>
        <mxCell id="5d-99hIwQhO7OZEcg7qO-36" value="V" style="text;html=1;align=center;verticalAlign=middle;resizable=0;points=[];autosize=1;strokeColor=none;fillColor=none;" parent="1" vertex="1">
          <mxGeometry x="345" y="40" width="30" height="30" as="geometry" />
        </mxCell>
        <mxCell id="5d-99hIwQhO7OZEcg7qO-37" value="" style="endArrow=none;html=1;rounded=0;exitX=1;exitY=0.5;exitDx=0;exitDy=0;entryX=0;entryY=0.5;entryDx=0;entryDy=0;" parent="1" source="5d-99hIwQhO7OZEcg7qO-14" target="5d-99hIwQhO7OZEcg7qO-2" edge="1">
          <mxGeometry width="50" height="50" relative="1" as="geometry">
            <mxPoint x="400" y="350" as="sourcePoint" />
            <mxPoint x="450" y="300" as="targetPoint" />
          </mxGeometry>
        </mxCell>
        <mxCell id="5d-99hIwQhO7OZEcg7qO-38" value="" style="endArrow=none;html=1;rounded=0;exitX=1;exitY=0.5;exitDx=0;exitDy=0;entryX=0;entryY=0.5;entryDx=0;entryDy=0;" parent="1" source="5d-99hIwQhO7OZEcg7qO-15" target="5d-99hIwQhO7OZEcg7qO-3" edge="1">
          <mxGeometry width="50" height="50" relative="1" as="geometry">
            <mxPoint x="400" y="350" as="sourcePoint" />
            <mxPoint x="450" y="300" as="targetPoint" />
          </mxGeometry>
        </mxCell>
        <mxCell id="5d-99hIwQhO7OZEcg7qO-39" value="" style="endArrow=none;html=1;rounded=0;exitX=1;exitY=0.5;exitDx=0;exitDy=0;entryX=0;entryY=0.5;entryDx=0;entryDy=0;" parent="1" source="5d-99hIwQhO7OZEcg7qO-16" target="5d-99hIwQhO7OZEcg7qO-4" edge="1">
          <mxGeometry width="50" height="50" relative="1" as="geometry">
            <mxPoint x="400" y="350" as="sourcePoint" />
            <mxPoint x="450" y="300" as="targetPoint" />
          </mxGeometry>
        </mxCell>
        <mxCell id="5d-99hIwQhO7OZEcg7qO-40" value="C14" style="ellipse;whiteSpace=wrap;html=1;" parent="1" vertex="1">
          <mxGeometry x="180" y="660" width="40" height="40" as="geometry" />
        </mxCell>
        <mxCell id="5d-99hIwQhO7OZEcg7qO-41" value="C15" style="ellipse;whiteSpace=wrap;html=1;" parent="1" vertex="1">
          <mxGeometry x="180" y="710" width="40" height="40" as="geometry" />
        </mxCell>
        <mxCell id="5d-99hIwQhO7OZEcg7qO-42" value="C16" style="ellipse;whiteSpace=wrap;html=1;" parent="1" vertex="1">
          <mxGeometry x="180" y="760" width="40" height="40" as="geometry" />
        </mxCell>
        <mxCell id="5d-99hIwQhO7OZEcg7qO-43" value="" style="endArrow=none;html=1;rounded=0;exitX=1;exitY=0.5;exitDx=0;exitDy=0;entryX=0;entryY=0.5;entryDx=0;entryDy=0;" parent="1" source="5d-99hIwQhO7OZEcg7qO-17" target="5d-99hIwQhO7OZEcg7qO-5" edge="1">
          <mxGeometry width="50" height="50" relative="1" as="geometry">
            <mxPoint x="400" y="350" as="sourcePoint" />
            <mxPoint x="450" y="300" as="targetPoint" />
          </mxGeometry>
        </mxCell>
        <mxCell id="5d-99hIwQhO7OZEcg7qO-48" value="" style="endArrow=none;html=1;rounded=0;exitX=1;exitY=0.5;exitDx=0;exitDy=0;entryX=0;entryY=1;entryDx=0;entryDy=0;" parent="1" source="5d-99hIwQhO7OZEcg7qO-21" edge="1">
          <mxGeometry width="50" height="50" relative="1" as="geometry">
            <mxPoint x="214.14" y="515.86" as="sourcePoint" />
            <mxPoint x="709.9978643762689" y="280.0021356237311" as="targetPoint" />
          </mxGeometry>
        </mxCell>
        <mxCell id="5d-99hIwQhO7OZEcg7qO-49" value="" style="endArrow=none;html=1;rounded=0;exitX=1;exitY=0.5;exitDx=0;exitDy=0;" parent="1" source="5d-99hIwQhO7OZEcg7qO-18" edge="1">
          <mxGeometry width="50" height="50" relative="1" as="geometry">
            <mxPoint x="400" y="350" as="sourcePoint" />
            <mxPoint x="710" y="280" as="targetPoint" />
          </mxGeometry>
        </mxCell>
        <mxCell id="5d-99hIwQhO7OZEcg7qO-50" value="" style="endArrow=none;html=1;rounded=0;exitX=1;exitY=0.5;exitDx=0;exitDy=0;entryX=0;entryY=0.5;entryDx=0;entryDy=0;" parent="1" source="5d-99hIwQhO7OZEcg7qO-19" target="5d-99hIwQhO7OZEcg7qO-5" edge="1">
          <mxGeometry width="50" height="50" relative="1" as="geometry">
            <mxPoint x="400" y="350" as="sourcePoint" />
            <mxPoint x="450" y="300" as="targetPoint" />
          </mxGeometry>
        </mxCell>
        <mxCell id="5d-99hIwQhO7OZEcg7qO-51" value="" style="endArrow=none;html=1;rounded=0;exitX=1;exitY=0.5;exitDx=0;exitDy=0;entryX=0;entryY=0.5;entryDx=0;entryDy=0;" parent="1" source="5d-99hIwQhO7OZEcg7qO-20" target="5d-99hIwQhO7OZEcg7qO-5" edge="1">
          <mxGeometry width="50" height="50" relative="1" as="geometry">
            <mxPoint x="400" y="350" as="sourcePoint" />
            <mxPoint x="450" y="300" as="targetPoint" />
          </mxGeometry>
        </mxCell>
        <mxCell id="5d-99hIwQhO7OZEcg7qO-52" value="" style="shape=requiredInterface;html=1;verticalLabelPosition=bottom;sketch=0;rotation=-200;" parent="1" vertex="1">
          <mxGeometry x="510" y="300" width="26.58" height="70" as="geometry" />
        </mxCell>
        <mxCell id="5d-99hIwQhO7OZEcg7qO-54" value="V" style="text;html=1;align=center;verticalAlign=middle;resizable=0;points=[];autosize=1;strokeColor=none;fillColor=none;rotation=-183;" parent="1" vertex="1">
          <mxGeometry x="405" y="308" width="30" height="30" as="geometry" />
        </mxCell>
        <mxCell id="5d-99hIwQhO7OZEcg7qO-55" value="V" style="text;html=1;align=center;verticalAlign=middle;resizable=0;points=[];autosize=1;strokeColor=none;fillColor=none;rotation=-182;" parent="1" vertex="1">
          <mxGeometry x="405" y="338" width="30" height="30" as="geometry" />
        </mxCell>
        <mxCell id="5d-99hIwQhO7OZEcg7qO-56" value="V" style="text;html=1;align=center;verticalAlign=middle;resizable=0;points=[];autosize=1;strokeColor=none;fillColor=none;rotation=-180;" parent="1" vertex="1">
          <mxGeometry x="405" y="368" width="30" height="30" as="geometry" />
        </mxCell>
        <mxCell id="5d-99hIwQhO7OZEcg7qO-57" value="V" style="text;html=1;align=center;verticalAlign=middle;resizable=0;points=[];autosize=1;strokeColor=none;fillColor=none;rotation=-184;" parent="1" vertex="1">
          <mxGeometry x="405" y="398" width="30" height="30" as="geometry" />
        </mxCell>
        <mxCell id="5d-99hIwQhO7OZEcg7qO-58" value="O" style="text;html=1;align=center;verticalAlign=middle;resizable=0;points=[];autosize=1;strokeColor=none;fillColor=none;" parent="1" vertex="1">
          <mxGeometry x="15" y="588" width="30" height="30" as="geometry" />
        </mxCell>
        <mxCell id="5d-99hIwQhO7OZEcg7qO-59" value="" style="endArrow=none;dashed=1;html=1;dashPattern=1 3;strokeWidth=2;rounded=0;exitX=0.967;exitY=0.567;exitDx=0;exitDy=0;exitPerimeter=0;entryX=0;entryY=0.5;entryDx=0;entryDy=0;" parent="1" source="5d-99hIwQhO7OZEcg7qO-58" target="5d-99hIwQhO7OZEcg7qO-22" edge="1">
          <mxGeometry width="50" height="50" relative="1" as="geometry">
            <mxPoint x="400" y="550" as="sourcePoint" />
            <mxPoint x="450" y="500" as="targetPoint" />
          </mxGeometry>
        </mxCell>
        <mxCell id="5d-99hIwQhO7OZEcg7qO-60" value="" style="endArrow=none;dashed=1;html=1;dashPattern=1 3;strokeWidth=2;rounded=0;entryX=0;entryY=0.5;entryDx=0;entryDy=0;exitX=1;exitY=0.633;exitDx=0;exitDy=0;exitPerimeter=0;" parent="1" source="5d-99hIwQhO7OZEcg7qO-58" target="5d-99hIwQhO7OZEcg7qO-23" edge="1">
          <mxGeometry width="50" height="50" relative="1" as="geometry">
            <mxPoint x="50" y="602" as="sourcePoint" />
            <mxPoint x="450" y="500" as="targetPoint" />
          </mxGeometry>
        </mxCell>
        <mxCell id="5d-99hIwQhO7OZEcg7qO-61" value="" style="endArrow=none;html=1;rounded=0;exitX=1;exitY=0.5;exitDx=0;exitDy=0;entryX=0;entryY=0.5;entryDx=0;entryDy=0;" parent="1" source="5d-99hIwQhO7OZEcg7qO-22" target="5d-99hIwQhO7OZEcg7qO-5" edge="1">
          <mxGeometry width="50" height="50" relative="1" as="geometry">
            <mxPoint x="400" y="350" as="sourcePoint" />
            <mxPoint x="450" y="300" as="targetPoint" />
          </mxGeometry>
        </mxCell>
        <mxCell id="5d-99hIwQhO7OZEcg7qO-62" value="" style="endArrow=none;html=1;rounded=0;exitX=1;exitY=0.5;exitDx=0;exitDy=0;entryX=0;entryY=0.5;entryDx=0;entryDy=0;" parent="1" source="5d-99hIwQhO7OZEcg7qO-23" target="5d-99hIwQhO7OZEcg7qO-5" edge="1">
          <mxGeometry width="50" height="50" relative="1" as="geometry">
            <mxPoint x="295" y="620" as="sourcePoint" />
            <mxPoint x="345" y="570" as="targetPoint" />
          </mxGeometry>
        </mxCell>
        <mxCell id="5d-99hIwQhO7OZEcg7qO-63" value="" style="shape=requiredInterface;html=1;verticalLabelPosition=bottom;sketch=0;rotation=137;" parent="1" vertex="1">
          <mxGeometry x="450" y="440" width="10" height="20" as="geometry" />
        </mxCell>
        <mxCell id="5d-99hIwQhO7OZEcg7qO-64" value="V" style="text;html=1;align=center;verticalAlign=middle;resizable=0;points=[];autosize=1;strokeColor=none;fillColor=none;" parent="1" vertex="1">
          <mxGeometry x="425" y="450" width="30" height="30" as="geometry" />
        </mxCell>
        <mxCell id="5d-99hIwQhO7OZEcg7qO-67" value="" style="endArrow=none;html=1;rounded=0;exitX=1;exitY=0.5;exitDx=0;exitDy=0;entryX=0;entryY=0.5;entryDx=0;entryDy=0;" parent="1" source="5d-99hIwQhO7OZEcg7qO-40" target="5d-99hIwQhO7OZEcg7qO-5" edge="1">
          <mxGeometry width="50" height="50" relative="1" as="geometry">
            <mxPoint x="400" y="450" as="sourcePoint" />
            <mxPoint x="450" y="400" as="targetPoint" />
          </mxGeometry>
        </mxCell>
        <mxCell id="5d-99hIwQhO7OZEcg7qO-71" value="Ef 6" style="ellipse;whiteSpace=wrap;html=1;" parent="1" vertex="1">
          <mxGeometry x="709.9998078600593" y="520" width="40" height="40" as="geometry" />
        </mxCell>
        <mxCell id="5d-99hIwQhO7OZEcg7qO-72" value="" style="endArrow=none;html=1;rounded=0;exitX=1;exitY=0.5;exitDx=0;exitDy=0;entryX=0;entryY=0.5;entryDx=0;entryDy=0;" parent="1" source="5d-99hIwQhO7OZEcg7qO-17" target="5d-99hIwQhO7OZEcg7qO-71" edge="1">
          <mxGeometry width="50" height="50" relative="1" as="geometry">
            <mxPoint x="546.0098078600593" y="540" as="sourcePoint" />
            <mxPoint x="776.0098078600593" y="510" as="targetPoint" />
          </mxGeometry>
        </mxCell>
        <mxCell id="5d-99hIwQhO7OZEcg7qO-73" value="" style="endArrow=none;html=1;rounded=0;exitX=1;exitY=0.5;exitDx=0;exitDy=0;entryX=0;entryY=0.5;entryDx=0;entryDy=0;" parent="1" source="5d-99hIwQhO7OZEcg7qO-21" target="5d-99hIwQhO7OZEcg7qO-71" edge="1">
          <mxGeometry width="50" height="50" relative="1" as="geometry">
            <mxPoint x="546.0098078600593" y="740" as="sourcePoint" />
            <mxPoint x="1036.0076722363283" y="490.0021356237311" as="targetPoint" />
          </mxGeometry>
        </mxCell>
        <mxCell id="5d-99hIwQhO7OZEcg7qO-74" value="" style="endArrow=none;html=1;rounded=0;exitX=1;exitY=0.5;exitDx=0;exitDy=0;entryX=0;entryY=0.5;entryDx=0;entryDy=0;" parent="1" source="5d-99hIwQhO7OZEcg7qO-18" target="5d-99hIwQhO7OZEcg7qO-71" edge="1">
          <mxGeometry width="50" height="50" relative="1" as="geometry">
            <mxPoint x="546.0098078600593" y="590" as="sourcePoint" />
            <mxPoint x="1036.0098078600593" y="490" as="targetPoint" />
          </mxGeometry>
        </mxCell>
        <mxCell id="5d-99hIwQhO7OZEcg7qO-75" value="" style="endArrow=none;html=1;rounded=0;exitX=1;exitY=0.5;exitDx=0;exitDy=0;entryX=0;entryY=0.5;entryDx=0;entryDy=0;" parent="1" source="5d-99hIwQhO7OZEcg7qO-19" target="5d-99hIwQhO7OZEcg7qO-71" edge="1">
          <mxGeometry width="50" height="50" relative="1" as="geometry">
            <mxPoint x="546.0098078600593" y="640" as="sourcePoint" />
            <mxPoint x="776.0098078600593" y="510" as="targetPoint" />
          </mxGeometry>
        </mxCell>
        <mxCell id="5d-99hIwQhO7OZEcg7qO-76" value="" style="endArrow=none;html=1;rounded=0;exitX=1;exitY=0.5;exitDx=0;exitDy=0;entryX=0;entryY=0.5;entryDx=0;entryDy=0;" parent="1" source="5d-99hIwQhO7OZEcg7qO-20" target="5d-99hIwQhO7OZEcg7qO-71" edge="1">
          <mxGeometry width="50" height="50" relative="1" as="geometry">
            <mxPoint x="546.0098078600593" y="690" as="sourcePoint" />
            <mxPoint x="776.0098078600593" y="510" as="targetPoint" />
          </mxGeometry>
        </mxCell>
        <mxCell id="5d-99hIwQhO7OZEcg7qO-77" value="" style="shape=requiredInterface;html=1;verticalLabelPosition=bottom;sketch=0;rotation=-160;" parent="1" vertex="1">
          <mxGeometry x="550" y="480" width="18.07" height="55" as="geometry" />
        </mxCell>
        <mxCell id="5d-99hIwQhO7OZEcg7qO-78" value="V" style="text;html=1;align=center;verticalAlign=middle;resizable=0;points=[];autosize=1;strokeColor=none;fillColor=none;rotation=-183;" parent="1" vertex="1">
          <mxGeometry x="509.99980786005926" y="480" width="30" height="30" as="geometry" />
        </mxCell>
        <mxCell id="5d-99hIwQhO7OZEcg7qO-79" value="V" style="text;html=1;align=center;verticalAlign=middle;resizable=0;points=[];autosize=1;strokeColor=none;fillColor=none;rotation=-182;" parent="1" vertex="1">
          <mxGeometry x="519.9998078600593" y="460" width="30" height="30" as="geometry" />
        </mxCell>
        <mxCell id="5d-99hIwQhO7OZEcg7qO-80" value="V" style="text;html=1;align=center;verticalAlign=middle;resizable=0;points=[];autosize=1;strokeColor=none;fillColor=none;rotation=-180;" parent="1" vertex="1">
          <mxGeometry x="506.57980786005925" y="492.5" width="30" height="30" as="geometry" />
        </mxCell>
        <mxCell id="5d-99hIwQhO7OZEcg7qO-81" value="V" style="text;html=1;align=center;verticalAlign=middle;resizable=0;points=[];autosize=1;strokeColor=none;fillColor=none;rotation=-184;" parent="1" vertex="1">
          <mxGeometry x="519.9998078600593" y="515" width="30" height="30" as="geometry" />
        </mxCell>
        <mxCell id="5d-99hIwQhO7OZEcg7qO-82" value="" style="endArrow=none;html=1;rounded=0;exitX=1;exitY=0.5;exitDx=0;exitDy=0;entryX=0;entryY=0.5;entryDx=0;entryDy=0;" parent="1" source="5d-99hIwQhO7OZEcg7qO-22" target="5d-99hIwQhO7OZEcg7qO-71" edge="1">
          <mxGeometry width="50" height="50" relative="1" as="geometry">
            <mxPoint x="546.0098078600593" y="790" as="sourcePoint" />
            <mxPoint x="776.0098078600593" y="510" as="targetPoint" />
          </mxGeometry>
        </mxCell>
        <mxCell id="5d-99hIwQhO7OZEcg7qO-83" value="" style="endArrow=none;html=1;rounded=0;exitX=1;exitY=0.5;exitDx=0;exitDy=0;entryX=0;entryY=0.5;entryDx=0;entryDy=0;" parent="1" source="5d-99hIwQhO7OZEcg7qO-23" target="5d-99hIwQhO7OZEcg7qO-71" edge="1">
          <mxGeometry width="50" height="50" relative="1" as="geometry">
            <mxPoint x="546.0098078600593" y="840" as="sourcePoint" />
            <mxPoint x="671.0098078600593" y="780" as="targetPoint" />
          </mxGeometry>
        </mxCell>
        <mxCell id="5d-99hIwQhO7OZEcg7qO-84" value="V" style="text;html=1;align=center;verticalAlign=middle;resizable=0;points=[];autosize=1;strokeColor=none;fillColor=none;" parent="1" vertex="1">
          <mxGeometry x="479.99980786005926" y="555" width="30" height="30" as="geometry" />
        </mxCell>
        <mxCell id="5d-99hIwQhO7OZEcg7qO-85" value="" style="endArrow=none;html=1;rounded=0;exitX=1;exitY=0.5;exitDx=0;exitDy=0;entryX=0;entryY=0.5;entryDx=0;entryDy=0;" parent="1" source="5d-99hIwQhO7OZEcg7qO-41" target="5d-99hIwQhO7OZEcg7qO-71" edge="1">
          <mxGeometry width="50" height="50" relative="1" as="geometry">
            <mxPoint x="546.0098078600593" y="890" as="sourcePoint" />
            <mxPoint x="776.0098078600593" y="610" as="targetPoint" />
          </mxGeometry>
        </mxCell>
        <mxCell id="5d-99hIwQhO7OZEcg7qO-91" value="" style="shape=requiredInterface;html=1;verticalLabelPosition=bottom;sketch=0;rotation=-190;" parent="1" vertex="1">
          <mxGeometry x="506.58" y="555" width="10" height="20" as="geometry" />
        </mxCell>
        <mxCell id="5d-99hIwQhO7OZEcg7qO-93" value="E" style="text;html=1;align=center;verticalAlign=middle;resizable=0;points=[];autosize=1;strokeColor=none;fillColor=none;" parent="1" vertex="1">
          <mxGeometry x="15" y="718" width="30" height="30" as="geometry" />
        </mxCell>
        <mxCell id="5d-99hIwQhO7OZEcg7qO-94" value="" style="endArrow=none;dashed=1;html=1;dashPattern=1 3;strokeWidth=2;rounded=0;exitX=0;exitY=0.5;exitDx=0;exitDy=0;entryX=0.9;entryY=0.5;entryDx=0;entryDy=0;entryPerimeter=0;" parent="1" source="5d-99hIwQhO7OZEcg7qO-40" target="5d-99hIwQhO7OZEcg7qO-93" edge="1">
          <mxGeometry width="50" height="50" relative="1" as="geometry">
            <mxPoint x="400" y="540" as="sourcePoint" />
            <mxPoint x="530" y="770" as="targetPoint" />
          </mxGeometry>
        </mxCell>
        <mxCell id="5d-99hIwQhO7OZEcg7qO-95" value="" style="endArrow=none;dashed=1;html=1;dashPattern=1 3;strokeWidth=2;rounded=0;exitX=0;exitY=0.5;exitDx=0;exitDy=0;entryX=1.133;entryY=0.533;entryDx=0;entryDy=0;entryPerimeter=0;" parent="1" source="5d-99hIwQhO7OZEcg7qO-41" target="5d-99hIwQhO7OZEcg7qO-93" edge="1">
          <mxGeometry width="50" height="50" relative="1" as="geometry">
            <mxPoint x="480" y="770" as="sourcePoint" />
            <mxPoint x="50" y="730" as="targetPoint" />
          </mxGeometry>
        </mxCell>
        <mxCell id="5d-99hIwQhO7OZEcg7qO-96" value="" style="endArrow=none;dashed=1;html=1;dashPattern=1 3;strokeWidth=2;rounded=0;exitX=0;exitY=0.5;exitDx=0;exitDy=0;entryX=0.967;entryY=0.6;entryDx=0;entryDy=0;entryPerimeter=0;" parent="1" source="5d-99hIwQhO7OZEcg7qO-42" target="5d-99hIwQhO7OZEcg7qO-93" edge="1">
          <mxGeometry width="50" height="50" relative="1" as="geometry">
            <mxPoint x="380" y="830" as="sourcePoint" />
            <mxPoint x="242" y="883" as="targetPoint" />
          </mxGeometry>
        </mxCell>
        <mxCell id="5d-99hIwQhO7OZEcg7qO-99" value="Ef 7" style="ellipse;whiteSpace=wrap;html=1;" parent="1" vertex="1">
          <mxGeometry x="710.0003284017895" y="748.00169906656" width="40" height="40" as="geometry" />
        </mxCell>
        <mxCell id="5d-99hIwQhO7OZEcg7qO-100" value="" style="endArrow=none;html=1;rounded=0;entryX=0;entryY=0.5;entryDx=0;entryDy=0;exitX=1;exitY=0.5;exitDx=0;exitDy=0;" parent="1" source="5d-99hIwQhO7OZEcg7qO-17" target="5d-99hIwQhO7OZEcg7qO-99" edge="1">
          <mxGeometry width="50" height="50" relative="1" as="geometry">
            <mxPoint x="230" y="330" as="sourcePoint" />
            <mxPoint x="1021.0103284017895" y="798.00169906656" as="targetPoint" />
          </mxGeometry>
        </mxCell>
        <mxCell id="5d-99hIwQhO7OZEcg7qO-101" value="" style="endArrow=none;html=1;rounded=0;exitX=1;exitY=0.5;exitDx=0;exitDy=0;entryX=0;entryY=0.5;entryDx=0;entryDy=0;" parent="1" source="5d-99hIwQhO7OZEcg7qO-21" target="5d-99hIwQhO7OZEcg7qO-99" edge="1">
          <mxGeometry width="50" height="50" relative="1" as="geometry">
            <mxPoint x="465.0005205417303" y="818.00169906656" as="sourcePoint" />
            <mxPoint x="1281.0081927780586" y="778.003834690291" as="targetPoint" />
          </mxGeometry>
        </mxCell>
        <mxCell id="5d-99hIwQhO7OZEcg7qO-102" value="" style="endArrow=none;html=1;rounded=0;exitX=1;exitY=0.5;exitDx=0;exitDy=0;entryX=0;entryY=0.5;entryDx=0;entryDy=0;" parent="1" source="5d-99hIwQhO7OZEcg7qO-18" target="5d-99hIwQhO7OZEcg7qO-99" edge="1">
          <mxGeometry width="50" height="50" relative="1" as="geometry">
            <mxPoint x="465.0005205417303" y="668.00169906656" as="sourcePoint" />
            <mxPoint x="1281.0103284017896" y="778.00169906656" as="targetPoint" />
          </mxGeometry>
        </mxCell>
        <mxCell id="5d-99hIwQhO7OZEcg7qO-103" value="" style="endArrow=none;html=1;rounded=0;exitX=1;exitY=0.5;exitDx=0;exitDy=0;entryX=0;entryY=0.5;entryDx=0;entryDy=0;" parent="1" source="5d-99hIwQhO7OZEcg7qO-19" target="5d-99hIwQhO7OZEcg7qO-99" edge="1">
          <mxGeometry width="50" height="50" relative="1" as="geometry">
            <mxPoint x="465.0005205417303" y="718.00169906656" as="sourcePoint" />
            <mxPoint x="1021.0103284017895" y="798.00169906656" as="targetPoint" />
          </mxGeometry>
        </mxCell>
        <mxCell id="5d-99hIwQhO7OZEcg7qO-104" value="" style="endArrow=none;html=1;rounded=0;exitX=1;exitY=0.5;exitDx=0;exitDy=0;entryX=0;entryY=0.5;entryDx=0;entryDy=0;" parent="1" source="5d-99hIwQhO7OZEcg7qO-20" target="5d-99hIwQhO7OZEcg7qO-99" edge="1">
          <mxGeometry width="50" height="50" relative="1" as="geometry">
            <mxPoint x="465.0005205417303" y="768.00169906656" as="sourcePoint" />
            <mxPoint x="1021.0103284017895" y="798.00169906656" as="targetPoint" />
          </mxGeometry>
        </mxCell>
        <mxCell id="5d-99hIwQhO7OZEcg7qO-105" value="" style="shape=requiredInterface;html=1;verticalLabelPosition=bottom;sketch=0;rotation=-140;" parent="1" vertex="1">
          <mxGeometry x="536.5805205417303" y="630.00169906656" width="18.07" height="55" as="geometry" />
        </mxCell>
        <mxCell id="5d-99hIwQhO7OZEcg7qO-106" value="" style="endArrow=none;html=1;rounded=0;exitX=1;exitY=0.5;exitDx=0;exitDy=0;entryX=0;entryY=0.5;entryDx=0;entryDy=0;" parent="1" source="5d-99hIwQhO7OZEcg7qO-22" target="5d-99hIwQhO7OZEcg7qO-99" edge="1">
          <mxGeometry width="50" height="50" relative="1" as="geometry">
            <mxPoint x="465.0005205417303" y="868.00169906656" as="sourcePoint" />
            <mxPoint x="1021.0103284017895" y="798.00169906656" as="targetPoint" />
          </mxGeometry>
        </mxCell>
        <mxCell id="5d-99hIwQhO7OZEcg7qO-107" value="" style="endArrow=none;html=1;rounded=0;exitX=1;exitY=0.5;exitDx=0;exitDy=0;entryX=0;entryY=0.5;entryDx=0;entryDy=0;" parent="1" source="5d-99hIwQhO7OZEcg7qO-23" target="5d-99hIwQhO7OZEcg7qO-99" edge="1">
          <mxGeometry width="50" height="50" relative="1" as="geometry">
            <mxPoint x="465.0005205417303" y="918.00169906656" as="sourcePoint" />
            <mxPoint x="916.0103284017895" y="1068.00169906656" as="targetPoint" />
          </mxGeometry>
        </mxCell>
        <mxCell id="5d-99hIwQhO7OZEcg7qO-108" value="" style="endArrow=none;html=1;rounded=0;exitX=1;exitY=0.5;exitDx=0;exitDy=0;entryX=0;entryY=0.5;entryDx=0;entryDy=0;" parent="1" source="5d-99hIwQhO7OZEcg7qO-42" target="5d-99hIwQhO7OZEcg7qO-99" edge="1">
          <mxGeometry width="50" height="50" relative="1" as="geometry">
            <mxPoint x="465.0005205417303" y="1018.00169906656" as="sourcePoint" />
            <mxPoint x="1021.0103284017895" y="898.00169906656" as="targetPoint" />
          </mxGeometry>
        </mxCell>
        <mxCell id="5d-99hIwQhO7OZEcg7qO-109" value="" style="shape=requiredInterface;html=1;verticalLabelPosition=bottom;sketch=0;rotation=-155;" parent="1" vertex="1">
          <mxGeometry x="526.5805205417303" y="698.00169906656" width="10" height="20" as="geometry" />
        </mxCell>
        <mxCell id="5d-99hIwQhO7OZEcg7qO-111" value="V" style="text;html=1;align=center;verticalAlign=middle;resizable=0;points=[];autosize=1;strokeColor=none;fillColor=none;rotation=-183;" parent="1" vertex="1">
          <mxGeometry x="530.6144823649628" y="610.0044823649628" width="30" height="30" as="geometry" />
        </mxCell>
        <mxCell id="5d-99hIwQhO7OZEcg7qO-112" value="V" style="text;html=1;align=center;verticalAlign=middle;resizable=0;points=[];autosize=1;strokeColor=none;fillColor=none;rotation=-183;" parent="1" vertex="1">
          <mxGeometry x="516.5844823649628" y="620.0044823649628" width="30" height="30" as="geometry" />
        </mxCell>
        <mxCell id="5d-99hIwQhO7OZEcg7qO-113" value="V" style="text;html=1;align=center;verticalAlign=middle;resizable=0;points=[];autosize=1;strokeColor=none;fillColor=none;rotation=-183;" parent="1" vertex="1">
          <mxGeometry x="508.29448236496273" y="630.0044823649628" width="30" height="30" as="geometry" />
        </mxCell>
        <mxCell id="5d-99hIwQhO7OZEcg7qO-114" value="V" style="text;html=1;align=center;verticalAlign=middle;resizable=0;points=[];autosize=1;strokeColor=none;fillColor=none;rotation=-183;" parent="1" vertex="1">
          <mxGeometry x="506.58448236496275" y="650.0044823649628" width="30" height="30" as="geometry" />
        </mxCell>
        <mxCell id="5d-99hIwQhO7OZEcg7qO-116" value="V" style="text;html=1;align=center;verticalAlign=middle;resizable=0;points=[];autosize=1;strokeColor=none;fillColor=none;" parent="1" vertex="1">
          <mxGeometry x="500.61" y="690" width="30" height="30" as="geometry" />
        </mxCell>
        <mxCell id="5d-99hIwQhO7OZEcg7qO-117" value="" style="endArrow=none;html=1;rounded=0;exitX=1;exitY=0.5;exitDx=0;exitDy=0;entryX=0;entryY=0.5;entryDx=0;entryDy=0;" parent="1" source="5d-99hIwQhO7OZEcg7qO-22" target="5d-99hIwQhO7OZEcg7qO-9" edge="1">
          <mxGeometry width="50" height="50" relative="1" as="geometry">
            <mxPoint x="300" y="920" as="sourcePoint" />
            <mxPoint x="790" y="908" as="targetPoint" />
          </mxGeometry>
        </mxCell>
        <mxCell id="5d-99hIwQhO7OZEcg7qO-118" value="" style="endArrow=none;html=1;rounded=0;exitX=1;exitY=0.5;exitDx=0;exitDy=0;entryX=0;entryY=0.5;entryDx=0;entryDy=0;" parent="1" source="5d-99hIwQhO7OZEcg7qO-23" target="5d-99hIwQhO7OZEcg7qO-10" edge="1">
          <mxGeometry width="50" height="50" relative="1" as="geometry">
            <mxPoint x="330" y="920" as="sourcePoint" />
            <mxPoint x="820" y="908" as="targetPoint" />
          </mxGeometry>
        </mxCell>
        <mxCell id="5d-99hIwQhO7OZEcg7qO-119" value="" style="endArrow=none;html=1;rounded=0;exitX=1;exitY=0.5;exitDx=0;exitDy=0;entryX=0;entryY=0.5;entryDx=0;entryDy=0;" parent="1" source="5d-99hIwQhO7OZEcg7qO-16" target="5d-99hIwQhO7OZEcg7qO-9" edge="1">
          <mxGeometry width="50" height="50" relative="1" as="geometry">
            <mxPoint x="160" y="910" as="sourcePoint" />
            <mxPoint x="650" y="898" as="targetPoint" />
          </mxGeometry>
        </mxCell>
        <mxCell id="5d-99hIwQhO7OZEcg7qO-120" value="" style="endArrow=none;dashed=1;html=1;dashPattern=1 3;strokeWidth=2;rounded=0;exitX=0.967;exitY=0.567;exitDx=0;exitDy=0;exitPerimeter=0;entryX=0;entryY=0.5;entryDx=0;entryDy=0;" parent="1" source="5d-99hIwQhO7OZEcg7qO-58" target="5d-99hIwQhO7OZEcg7qO-16" edge="1">
          <mxGeometry width="50" height="50" relative="1" as="geometry">
            <mxPoint x="100" y="520" as="sourcePoint" />
            <mxPoint x="130" y="460" as="targetPoint" />
          </mxGeometry>
        </mxCell>
        <mxCell id="5d-99hIwQhO7OZEcg7qO-121" value="O" style="text;html=1;align=center;verticalAlign=middle;resizable=0;points=[];autosize=1;strokeColor=none;fillColor=none;" parent="1" vertex="1">
          <mxGeometry x="15" y="20" width="30" height="30" as="geometry" />
        </mxCell>
        <mxCell id="5d-99hIwQhO7OZEcg7qO-122" value="" style="endArrow=none;dashed=1;html=1;dashPattern=1 3;strokeWidth=2;rounded=0;exitX=1.1;exitY=0.5;exitDx=0;exitDy=0;exitPerimeter=0;entryX=0;entryY=0.5;entryDx=0;entryDy=0;" parent="1" source="5d-99hIwQhO7OZEcg7qO-121" target="5d-99hIwQhO7OZEcg7qO-11" edge="1">
          <mxGeometry width="50" height="50" relative="1" as="geometry">
            <mxPoint x="50" y="130" as="sourcePoint" />
            <mxPoint x="186" y="105" as="targetPoint" />
          </mxGeometry>
        </mxCell>
        <mxCell id="5d-99hIwQhO7OZEcg7qO-123" value="" style="endArrow=none;dashed=1;html=1;dashPattern=1 3;strokeWidth=2;rounded=0;exitX=1.1;exitY=0.6;exitDx=0;exitDy=0;exitPerimeter=0;entryX=0;entryY=0.5;entryDx=0;entryDy=0;" parent="1" source="5d-99hIwQhO7OZEcg7qO-121" target="5d-99hIwQhO7OZEcg7qO-17" edge="1">
          <mxGeometry width="50" height="50" relative="1" as="geometry">
            <mxPoint x="60" y="120" as="sourcePoint" />
            <mxPoint x="196" y="95" as="targetPoint" />
          </mxGeometry>
        </mxCell>
        <mxCell id="5d-99hIwQhO7OZEcg7qO-124" value="O" style="text;html=1;align=center;verticalAlign=middle;resizable=0;points=[];autosize=1;strokeColor=none;fillColor=none;" parent="1" vertex="1">
          <mxGeometry x="15" y="78" width="30" height="30" as="geometry" />
        </mxCell>
        <mxCell id="5d-99hIwQhO7OZEcg7qO-125" value="" style="endArrow=none;dashed=1;html=1;dashPattern=1 3;strokeWidth=2;rounded=0;exitX=0.933;exitY=0.467;exitDx=0;exitDy=0;exitPerimeter=0;entryX=0;entryY=0.5;entryDx=0;entryDy=0;" parent="1" source="5d-99hIwQhO7OZEcg7qO-124" target="5d-99hIwQhO7OZEcg7qO-12" edge="1">
          <mxGeometry width="50" height="50" relative="1" as="geometry">
            <mxPoint x="70" y="190" as="sourcePoint" />
            <mxPoint x="206" y="165" as="targetPoint" />
          </mxGeometry>
        </mxCell>
        <mxCell id="5d-99hIwQhO7OZEcg7qO-126" value="" style="endArrow=none;dashed=1;html=1;dashPattern=1 3;strokeWidth=2;rounded=0;exitX=1;exitY=0.533;exitDx=0;exitDy=0;exitPerimeter=0;entryX=0;entryY=0.5;entryDx=0;entryDy=0;" parent="1" source="5d-99hIwQhO7OZEcg7qO-124" target="5d-99hIwQhO7OZEcg7qO-18" edge="1">
          <mxGeometry width="50" height="50" relative="1" as="geometry">
            <mxPoint x="60" y="220" as="sourcePoint" />
            <mxPoint x="196" y="195" as="targetPoint" />
          </mxGeometry>
        </mxCell>
        <mxCell id="5d-99hIwQhO7OZEcg7qO-127" value="O" style="text;html=1;align=center;verticalAlign=middle;resizable=0;points=[];autosize=1;strokeColor=none;fillColor=none;" parent="1" vertex="1">
          <mxGeometry x="15" y="118" width="30" height="30" as="geometry" />
        </mxCell>
        <mxCell id="5d-99hIwQhO7OZEcg7qO-128" value="" style="endArrow=none;dashed=1;html=1;dashPattern=1 3;strokeWidth=2;rounded=0;exitX=1.067;exitY=0.4;exitDx=0;exitDy=0;exitPerimeter=0;entryX=0;entryY=0.5;entryDx=0;entryDy=0;" parent="1" source="5d-99hIwQhO7OZEcg7qO-127" target="5d-99hIwQhO7OZEcg7qO-13" edge="1">
          <mxGeometry width="50" height="50" relative="1" as="geometry">
            <mxPoint x="40" y="270" as="sourcePoint" />
            <mxPoint x="176" y="245" as="targetPoint" />
          </mxGeometry>
        </mxCell>
        <mxCell id="5d-99hIwQhO7OZEcg7qO-129" value="" style="endArrow=none;dashed=1;html=1;dashPattern=1 3;strokeWidth=2;rounded=0;entryX=0;entryY=0.5;entryDx=0;entryDy=0;" parent="1" target="5d-99hIwQhO7OZEcg7qO-19" edge="1">
          <mxGeometry width="50" height="50" relative="1" as="geometry">
            <mxPoint x="50" y="130" as="sourcePoint" />
            <mxPoint x="176" y="215" as="targetPoint" />
          </mxGeometry>
        </mxCell>
        <mxCell id="5d-99hIwQhO7OZEcg7qO-130" value="O" style="text;html=1;align=center;verticalAlign=middle;resizable=0;points=[];autosize=1;strokeColor=none;fillColor=none;" parent="1" vertex="1">
          <mxGeometry x="15" y="168" width="30" height="30" as="geometry" />
        </mxCell>
        <mxCell id="5d-99hIwQhO7OZEcg7qO-131" value="" style="endArrow=none;dashed=1;html=1;dashPattern=1 3;strokeWidth=2;rounded=0;exitX=1;exitY=0.6;exitDx=0;exitDy=0;exitPerimeter=0;entryX=0;entryY=0.5;entryDx=0;entryDy=0;" parent="1" source="5d-99hIwQhO7OZEcg7qO-130" target="5d-99hIwQhO7OZEcg7qO-14" edge="1">
          <mxGeometry width="50" height="50" relative="1" as="geometry">
            <mxPoint x="50" y="250" as="sourcePoint" />
            <mxPoint x="186" y="225" as="targetPoint" />
          </mxGeometry>
        </mxCell>
        <mxCell id="5d-99hIwQhO7OZEcg7qO-132" value="" style="endArrow=none;dashed=1;html=1;dashPattern=1 3;strokeWidth=2;rounded=0;exitX=1.1;exitY=0.633;exitDx=0;exitDy=0;exitPerimeter=0;entryX=0;entryY=0.5;entryDx=0;entryDy=0;" parent="1" source="5d-99hIwQhO7OZEcg7qO-130" target="5d-99hIwQhO7OZEcg7qO-20" edge="1">
          <mxGeometry width="50" height="50" relative="1" as="geometry">
            <mxPoint x="40" y="290" as="sourcePoint" />
            <mxPoint x="176" y="265" as="targetPoint" />
          </mxGeometry>
        </mxCell>
        <mxCell id="5d-99hIwQhO7OZEcg7qO-133" value="O" style="text;html=1;align=center;verticalAlign=middle;resizable=0;points=[];autosize=1;strokeColor=none;fillColor=none;" parent="1" vertex="1">
          <mxGeometry x="15" y="220" width="30" height="30" as="geometry" />
        </mxCell>
        <mxCell id="5d-99hIwQhO7OZEcg7qO-134" value="" style="endArrow=none;dashed=1;html=1;dashPattern=1 3;strokeWidth=2;rounded=0;exitX=1.033;exitY=0.533;exitDx=0;exitDy=0;exitPerimeter=0;entryX=0;entryY=0.5;entryDx=0;entryDy=0;" parent="1" source="5d-99hIwQhO7OZEcg7qO-133" target="5d-99hIwQhO7OZEcg7qO-15" edge="1">
          <mxGeometry width="50" height="50" relative="1" as="geometry">
            <mxPoint x="40" y="320" as="sourcePoint" />
            <mxPoint x="176" y="295" as="targetPoint" />
          </mxGeometry>
        </mxCell>
        <mxCell id="5d-99hIwQhO7OZEcg7qO-135" value="" style="endArrow=none;dashed=1;html=1;dashPattern=1 3;strokeWidth=2;rounded=0;exitX=1.1;exitY=0.533;exitDx=0;exitDy=0;exitPerimeter=0;entryX=0;entryY=0.5;entryDx=0;entryDy=0;" parent="1" source="5d-99hIwQhO7OZEcg7qO-133" target="5d-99hIwQhO7OZEcg7qO-21" edge="1">
          <mxGeometry width="50" height="50" relative="1" as="geometry">
            <mxPoint x="40" y="330" as="sourcePoint" />
            <mxPoint x="176" y="305" as="targetPoint" />
          </mxGeometry>
        </mxCell>
        <mxCell id="5d-99hIwQhO7OZEcg7qO-143" value="" style="curved=1;endArrow=classic;html=1;rounded=0;" parent="1" edge="1">
          <mxGeometry width="50" height="50" relative="1" as="geometry">
            <mxPoint x="180" y="328" as="sourcePoint" />
            <mxPoint x="170" y="430" as="targetPoint" />
            <Array as="points">
              <mxPoint x="140" y="328" />
              <mxPoint x="120" y="368" />
            </Array>
          </mxGeometry>
        </mxCell>
        <mxCell id="5d-99hIwQhO7OZEcg7qO-145" value="" style="curved=1;endArrow=classic;html=1;rounded=0;entryX=0;entryY=0.5;entryDx=0;entryDy=0;" parent="1" target="5d-99hIwQhO7OZEcg7qO-19" edge="1">
          <mxGeometry width="50" height="50" relative="1" as="geometry">
            <mxPoint x="180" y="380" as="sourcePoint" />
            <mxPoint x="170" y="420" as="targetPoint" />
            <Array as="points">
              <mxPoint x="140" y="380" />
              <mxPoint x="160" y="430" />
            </Array>
          </mxGeometry>
        </mxCell>
        <mxCell id="5d-99hIwQhO7OZEcg7qO-146" value="R" style="text;html=1;align=center;verticalAlign=middle;resizable=0;points=[];autosize=1;strokeColor=none;fillColor=none;" parent="1" vertex="1">
          <mxGeometry x="120" y="390" width="30" height="30" as="geometry" />
        </mxCell>
        <mxCell id="5d-99hIwQhO7OZEcg7qO-148" value="R" style="text;html=1;align=center;verticalAlign=middle;resizable=0;points=[];autosize=1;strokeColor=none;fillColor=none;" parent="1" vertex="1">
          <mxGeometry x="95" y="338" width="30" height="30" as="geometry" />
        </mxCell>
        <mxCell id="5d-99hIwQhO7OZEcg7qO-150" value="" style="curved=1;endArrow=classic;html=1;rounded=0;" parent="1" edge="1">
          <mxGeometry width="50" height="50" relative="1" as="geometry">
            <mxPoint x="180" y="28" as="sourcePoint" />
            <mxPoint x="180" y="430" as="targetPoint" />
            <Array as="points">
              <mxPoint x="140" y="28" />
              <mxPoint x="90" y="160" />
            </Array>
          </mxGeometry>
        </mxCell>
        <mxCell id="5d-99hIwQhO7OZEcg7qO-151" value="R" style="text;html=1;align=center;verticalAlign=middle;resizable=0;points=[];autosize=1;strokeColor=none;fillColor=none;" parent="1" vertex="1">
          <mxGeometry x="85" y="98" width="30" height="30" as="geometry" />
        </mxCell>
        <mxCell id="5d-99hIwQhO7OZEcg7qO-152" value="" style="curved=1;endArrow=classic;html=1;rounded=0;" parent="1" edge="1">
          <mxGeometry width="50" height="50" relative="1" as="geometry">
            <mxPoint x="180" y="79" as="sourcePoint" />
            <mxPoint x="180" y="430" as="targetPoint" />
            <Array as="points">
              <mxPoint x="140" y="79" />
              <mxPoint x="140" y="160" />
            </Array>
          </mxGeometry>
        </mxCell>
        <mxCell id="5d-99hIwQhO7OZEcg7qO-153" value="R" style="text;html=1;align=center;verticalAlign=middle;resizable=0;points=[];autosize=1;strokeColor=none;fillColor=none;" parent="1" vertex="1">
          <mxGeometry x="115" y="138" width="30" height="30" as="geometry" />
        </mxCell>
        <mxCell id="5d-99hIwQhO7OZEcg7qO-154" value="" style="curved=1;endArrow=classic;html=1;rounded=0;exitX=0.5;exitY=0;exitDx=0;exitDy=0;" parent="1" source="5d-99hIwQhO7OZEcg7qO-71" edge="1">
          <mxGeometry width="50" height="50" relative="1" as="geometry">
            <mxPoint x="690" y="470" as="sourcePoint" />
            <mxPoint x="730" y="300" as="targetPoint" />
            <Array as="points">
              <mxPoint x="700" y="480" />
              <mxPoint x="680" y="440" />
              <mxPoint x="680" y="400" />
            </Array>
          </mxGeometry>
        </mxCell>
        <mxCell id="5d-99hIwQhO7OZEcg7qO-155" value="M" style="text;html=1;align=center;verticalAlign=middle;resizable=0;points=[];autosize=1;strokeColor=none;fillColor=none;" parent="1" vertex="1">
          <mxGeometry x="650" y="410" width="30" height="30" as="geometry" />
        </mxCell>
        <mxCell id="5d-99hIwQhO7OZEcg7qO-157" value="" style="curved=1;endArrow=classic;html=1;rounded=0;exitX=0.5;exitY=1;exitDx=0;exitDy=0;entryX=0.5;entryY=0;entryDx=0;entryDy=0;" parent="1" source="5d-99hIwQhO7OZEcg7qO-5" target="5d-99hIwQhO7OZEcg7qO-71" edge="1">
          <mxGeometry width="50" height="50" relative="1" as="geometry">
            <mxPoint x="800" y="310" as="sourcePoint" />
            <mxPoint x="800" y="570" as="targetPoint" />
            <Array as="points">
              <mxPoint x="780" y="360" />
              <mxPoint x="800" y="400" />
              <mxPoint x="790" y="450" />
              <mxPoint x="770" y="480" />
            </Array>
          </mxGeometry>
        </mxCell>
        <mxCell id="5d-99hIwQhO7OZEcg7qO-158" value="M" style="text;html=1;align=center;verticalAlign=middle;resizable=0;points=[];autosize=1;strokeColor=none;fillColor=none;" parent="1" vertex="1">
          <mxGeometry x="805" y="410" width="30" height="30" as="geometry" />
        </mxCell>
      </root>
    </mxGraphModel>
  </diagram>
</mxfile>
